<?xml version="1.0" standalone="no"?>
<!DOCTYPE svg PUBLIC "-//W3C//DTD SVG 20010904//EN"
 "http://www.w3.org/TR/2001/REC-SVG-20010904/DTD/svg10.dtd">
<svg version="1.0" xmlns="http://www.w3.org/2000/svg"
 width="396.000000pt" height="396.000000pt" viewBox="0 0 396.000000 396.000000"
 preserveAspectRatio="xMidYMid meet">
<metadata>
Created by potrace 1.11, written by Peter Selinger 2001-2013
</metadata>
<g transform="translate(0.000000,396.000000) scale(0.100000,-0.100000)"
fill="#000000" stroke="none">
<path d="M0 1980 l0 -1970 1980 0 1980 0 0 1970 0 1970 -1980 0 -1980 0 0
-1970z m3668 8 l2 -1688 -1690 0 -1690 1 0 1689 0 1688 1688 -1 1687 -2 3
-1687z"/>
<path d="M900 2923 c-1 -60 -1 -1396 0 -1480 l0 -63 405 0 405 0 0 140 0 140
-237 1 c-131 1 -248 0 -260 -1 l-23 -1 0 515 0 516 260 0 260 0 0 140 0 140
-405 0 -405 0 0 -47z"/>
<path d="M2300 2175 l0 -795 400 0 400 0 1 58 c1 95 -2 217 -6 220 -2 2 -116
3 -255 3 -234 -1 -251 0 -249 16 0 10 1 305 0 656 l-1 637 -145 0 -145 0 0
-795z"/>
<path d="M458 936 c-27 -14 -36 -45 -32 -116 4 -71 27 -93 93 -87 37 3 46 7
46 23 0 13 -8 19 -25 21 -14 0 -33 1 -42 2 -15 1 -18 11 -18 61 l0 60 40 0
c33 0 40 3 40 20 0 29 -58 38 -102 16z"/>
<path d="M643 943 c-12 -2 -27 -11 -34 -19 -15 -19 -16 -133 -1 -161 22 -40
131 -42 152 -3 22 42 16 159 -9 174 -13 8 -84 14 -108 9z m77 -98 c0 -56 -8
-68 -47 -70 -22 -1 -23 3 -23 62 0 60 1 62 28 65 40 5 42 2 42 -57z"/>
<path d="M848 942 c-10 -2 -18 -11 -19 -20 0 -9 -2 -28 -4 -42 -3 -27 -7 -118
-6 -136 1 -6 11 -10 24 -9 19 1 23 8 27 56 6 56 10 54 29 -18 7 -24 14 -43 17
-43 22 0 43 25 49 60 9 52 21 51 23 -1 2 -49 7 -58 30 -55 15 3 17 14 15 96
-1 52 -4 99 -7 105 -2 7 -17 10 -34 7 -27 -4 -32 -10 -42 -53 -7 -27 -15 -51
-19 -54 -5 -2 -13 20 -20 49 -12 54 -25 66 -63 58z"/>
<path d="M1118 942 l-28 -3 0 -103 0 -102 25 0 c25 0 29 8 25 54 -1 21 8 27
39 22 16 -2 32 20 25 32 -3 4 -18 8 -34 8 -24 0 -28 4 -26 25 1 19 6 25 21 24
36 -2 43 1 48 21 3 11 2 20 -1 21 -28 3 -72 3 -94 1z"/>
<path d="M1279 936 c-28 -14 -37 -44 -33 -115 3 -68 19 -85 83 -87 54 -2 90
20 92 56 5 71 4 88 -4 112 -4 14 -16 30 -25 34 -27 12 -89 12 -113 0z m89
-151 c-2 -2 -16 -5 -33 -7 l-30 -3 -3 62 -3 62 33 3 33 3 3 -59 c2 -32 2 -60
0 -61z"/>
<path d="M1497 942 l-28 -3 3 -102 c3 -94 5 -102 23 -102 14 0 21 8 25 29 7
40 27 44 42 9 7 -15 13 -29 14 -31 1 -2 13 -5 28 -8 20 -3 26 0 26 14 0 10 -5
23 -11 29 -8 8 -8 25 2 61 11 44 10 54 -4 75 -16 25 -59 36 -120 29z m73 -73
c0 -26 -3 -30 -22 -27 -17 2 -23 10 -24 31 -1 22 3 27 22 27 20 0 24 -5 24
-31z"/>
<path d="M1678 942 c-37 -4 -40 -42 -3 -42 24 0 24 -2 27 -82 3 -78 4 -83 26
-84 21 -1 22 2 22 83 0 61 3 83 13 82 27 -3 37 2 37 21 0 11 -3 20 -7 21 -30
3 -93 3 -115 1z"/>
<path d="M2042 942 c-22 -3 -23 -6 -20 -105 l3 -102 60 0 c72 -1 101 20 90 63
-4 15 -7 45 -6 68 0 22 -5 48 -12 58 -12 16 -65 25 -115 18z m72 -51 c11 -17
-5 -39 -25 -34 -25 7 -25 43 0 43 11 0 22 -4 25 -9z m11 -81 c9 -15 -13 -39
-33 -36 -9 2 -18 13 -20 24 -3 18 2 22 22 22 14 0 28 -5 31 -10z"/>
<path d="M2243 942 c-22 -3 -23 -7 -23 -103 0 -110 -7 -101 75 -101 42 0 45 1
45 22 0 18 -26 27 -62 21 -5 0 -7 35 -6 79 1 44 0 81 -3 83 -2 1 -14 1 -26 -1z"/>
<path d="M2398 942 l-28 -3 0 -100 c0 -54 3 -100 8 -100 41 -7 114 -3 120 5
17 28 9 36 -33 36 -38 0 -44 3 -42 20 1 16 7 19 34 16 29 -3 33 0 33 21 0 17
-5 24 -17 22 -39 -3 -53 2 -53 20 0 10 6 19 13 18 46 -1 65 5 70 23 4 15 0 20
-16 21 -12 0 -31 1 -42 2 -11 1 -32 1 -47 -1z"/>
<path d="M2637 942 c-16 -3 -17 -15 -15 -105 3 -98 4 -101 26 -100 12 0 38 1
57 2 28 1 35 5 35 21 0 18 -26 27 -63 21 -4 0 -7 33 -6 75 1 79 -4 93 -34 86z"/>
<path d="M2793 942 c-22 -3 -23 -7 -23 -102 0 -82 3 -99 17 -104 9 -4 21 -2
26 3 9 9 14 200 5 205 -2 1 -13 0 -25 -2z"/>
<path d="M3001 940 c-21 -5 -27 -16 -41 -75 l-17 -70 -16 57 c-10 31 -17 63
-17 72 0 11 -9 16 -31 16 -28 0 -31 -3 -24 -22 11 -39 26 -91 36 -132 5 -22
12 -42 14 -46 8 -13 78 5 81 20 2 8 13 50 24 94 12 43 20 81 18 85 -2 4 -14 5
-27 1z"/>
<path d="M3077 942 c-16 -3 -17 -15 -15 -105 3 -98 4 -102 26 -103 25 -1 24
-2 22 126 -1 80 -5 89 -33 82z"/>
<path d="M3293 943 c-8 -3 -13 -24 -13 -56 l-1 -52 -32 53 c-25 41 -37 52 -58
52 l-26 0 -1 -99 c-1 -93 1 -99 20 -105 31 -8 34 -3 33 53 -1 28 0 51 1 51 1
0 14 -21 30 -47 15 -27 28 -49 29 -51 2 -2 14 -5 29 -8 29 -5 28 -9 28 101 0
36 -1 74 -1 84 -1 20 -18 31 -38 24z"/>
<path d="M3408 936 c-26 -13 -36 -50 -33 -121 3 -66 30 -89 98 -82 26 2 49 6
51 8 5 5 9 46 7 85 -1 28 -4 31 -36 32 -31 1 -35 -1 -35 -23 0 -14 3 -24 8
-24 18 3 22 -2 12 -20 -5 -11 -18 -18 -27 -17 -15 2 -19 15 -21 64 l-3 62 46
0 c38 0 45 3 45 20 0 11 -3 21 -7 21 -39 7 -86 4 -105 -5z"/>
<path d="M1855 930 c-4 -6 -8 -20 -11 -33 -2 -12 -12 -52 -23 -89 -11 -38 -19
-68 -18 -69 26 -10 47 -6 52 12 5 16 14 20 43 17 23 -2 36 -8 35 -15 -2 -7 0
-13 5 -14 4 0 15 -2 24 -4 28 -5 29 7 3 91 -14 43 -25 87 -25 97 0 13 -9 17
-39 17 -22 0 -43 -5 -46 -10z m51 -117 c-14 -14 -27 15 -20 43 l8 29 9 -33 c6
-18 7 -35 3 -39z"/>
</g>
</svg>
